<defs>
<font horiz-adv-x="493" ><font-face
    font-family="brawler"
    units-per-em="1000"
    panose-1="2 0 0 0 0 0 0 0 0 0"
    ascent="750"
    descent="-250"
    alphabetic="0" />
<missing-glyph horiz-adv-x="498" d="M50 0V521H464V0H50ZM122 449V72H392V449H122Z" />
<glyph unicode=" " glyph-name="space" horiz-adv-x="350" />
<glyph unicode="!" glyph-name="exclam" horiz-adv-x="365" d="M243 661L211 205H156L125 660Q146 695 185 719Q208 706 219 695T243 661ZM110 55Q136 103 184 128Q230 103 255 57Q227 9 181 -16Q134 8 110 55Z" />
<glyph unicode="&quot;" glyph-name="quotedbl" horiz-adv-x="330" d="M125 688L98 461H62L35 688Q53 721 80 729Q107 721 125 688ZM286 688L259 461H223L196 688Q214 721 241 729Q268 721 286 688Z" />
<glyph unicode="#" glyph-name="numbersign" horiz-adv-x="842" d="M377 -13L458 213H283L195 -33L135 -13L216 213H70V283H242L291 420H120V490H316L405 735L465 715L384 490H558L647 735L707 715L626 490H772V420H600L551 283H722V213H525L437 -33L377 -13ZM358
420L309 283H484L533 420H358Z" />
<glyph unicode="$" glyph-name="dollar" horiz-adv-x="555" d="M55 33V202L105 207L142 61Q198 38 266 40V316Q171 356 141 377Q61 431 61 526Q61 608 119 651T266 706V864H316V708Q370 708 415 696T481 665V496L431 491L393 640Q354 655 316 656V386Q359 368
386 353T445 312T492 252T508 173Q508 90 454 46T316 -7V-168H266V-10Q200 -12 140 1T55 33ZM156 525Q156 485 184 459T266 407V652Q217 642 187 609T156 525ZM413 173Q413 216 388 244T316 294V48Q413 74 413 173Z" />
<glyph unicode="%" glyph-name="percent" horiz-adv-x="701" d="M312 562Q312 495 278 454T174 412Q104 412 70 453T35 562T69 671T173 714Q243 714 277 672T312 562ZM501 700H576L200 0H125L501 700ZM666 140Q666 73 632 32T528 -10Q458 -10 424 31T389 140T423
249T527 292Q597 292 631 250T666 140ZM248 512T248 562T230 644T174 676Q136 676 118 645T100 562Q100 512 118 481T174 450T229 481ZM602 90T602 140T584 222T528 254Q490 254 472 223T454 140Q454 90 472 59T528 28T583 59Z" />
<glyph unicode="&amp;" glyph-name="ampersand" horiz-adv-x="749" d="M265 452Q280 435 352 349T462 222L540 343L471 353L481 401H686V371L602 335L500 181Q615 61 707 35L697 0H658Q542 39 454 111Q444 96 431 81T390 43T323 6T236 -9Q153 -9 103 39T52 156Q52
218 100 278T211 374Q173 412 154 446T134 526Q134 613 195 662T349 712Q462 712 519 640L456 511L410 530L426 625Q394 657 350 657Q302 657 265 624T227 542Q227 496 265 452ZM259 53Q339 53 413 147Q360 196 252 325Q204 293 176 248T148 159Q148 112 176 83T259
53Z" />
<glyph unicode="&apos;" glyph-name="quotesingle" horiz-adv-x="190" d="M140 688L113 461H77L50 688Q68 721 95 729Q122 721 140 688Z" />
<glyph unicode="(" glyph-name="parenleft" horiz-adv-x="365" d="M70 137T70 268T120 522T265 735L295 713Q160 572 160 268T295 -177L265 -199Q170 -110 120 13Z" />
<glyph unicode=")" glyph-name="parenright" horiz-adv-x="365" d="M295 399T295 268T245 14T100 -199L70 -177Q205 -36 205 268T70 713L100 735Q195 646 245 523Z" />
<glyph unicode="*" glyph-name="asterisk" horiz-adv-x="496" d="M270 569H226L204 721H291L270 569ZM211 557L197 515L46 541L73 624L211 557ZM206 500L242 474L170 338L100 390L206 500ZM258 478L294 505L401 394L330 344L258 478ZM296 519L281 562L420 629L445
546L296 519Z" />
<glyph unicode="+" glyph-name="plus" horiz-adv-x="834" d="M120 261V332H380V604H454V332H714V261H454V0H380V261H120Z" />
<glyph unicode="," glyph-name="comma" horiz-adv-x="277" d="M198 51Q206 18 195 -31T156 -122T95 -175L75 -150Q108 -128 119 -91T124 -22Q77 2 53 49Q79 97 127 122Q173 97 198 51Z" />
<glyph unicode="-" glyph-name="hyphen" horiz-adv-x="344" d="M50 195V270H294V195H50Z" />
<glyph unicode="." glyph-name="period" horiz-adv-x="285" d="M70 55Q96 103 144 128Q190 103 215 57Q187 9 141 -16Q94 8 70 55Z" />
<glyph unicode="/" glyph-name="slash" horiz-adv-x="598" d="M500 700H583L123 -157H40L500 700Z" />
<glyph unicode="0" glyph-name="zero" horiz-adv-x="592" d="M229 713T296 713T412 685T491 605T533 490T547 349Q547 190 487 91T297 -9Q209 -9 151 41T69 168T45 349Q45 426 58 489T101 604T179 684ZM294 658Q153 658 153 351Q153 46 292 46Q439 46 439 351Q439
658 294 658Z" />
<glyph unicode="1" glyph-name="one" horiz-adv-x="556" d="M346 64L476 45L466 0H107V35L246 64V609L80 574V609Q164 641 312 716H346V64Z" />
<glyph unicode="2" glyph-name="two" horiz-adv-x="585" d="M45 0V62Q87 103 143 156T225 234T284 293T332 345T362 388T384 432T393 475T397 528Q397 599 360 632T265 665Q237 665 205 655T155 628L115 468L65 478V647Q104 677 167 698T277 720Q382 720 444 671T507
522Q507 437 449 365T209 122Q187 101 175 90H468L488 179L530 169V0H45Z" />
<glyph unicode="3" glyph-name="three" horiz-adv-x="605" d="M535 204Q535 99 461 46T276 -8Q152 -8 50 35V204L100 214L134 73Q177 45 245 45Q332 45 378 85T425 206Q425 256 393 293T300 343H233V403H293Q411 423 411 526Q411 583 372 621T269 660Q197 660
154 633L120 492L70 502V671Q181 715 293 715Q391 715 454 673T517 535Q517 484 479 437T381 370Q448 350 491 309T535 204Z" />
<glyph unicode="4" glyph-name="four" horiz-adv-x="588" d="M258 35L366 64V168H30V195L419 715H466V223H562V168H466V64L561 45L551 0H258V35ZM119 223H366V551L119 223Z" />
<glyph unicode="5" glyph-name="five" horiz-adv-x="616" d="M546 740L500 611H186L170 410Q238 425 303 425Q418 425 481 362T545 211Q545 134 506 82T408 8T273 -14Q159 -14 60 30V199L110 209L144 68Q203 41 264 41Q338 41 387 80T436 199Q436 265 390 312T255
358Q245 358 219 356Q208 355 187 354T156 350H110L138 701H464L494 753L546 740Z" />
<glyph unicode="6" glyph-name="six" horiz-adv-x="599" d="M448 210Q448 281 407 320T304 360Q227 360 165 300Q165 180 204 112T319 43Q381 43 414 88T448 210ZM170 349Q244 419 347 419Q436 419 497 368T558 219Q558 125 490 57T320 -11Q194 -11 125 66T55
285Q55 388 93 473T191 608T321 685T458 711L476 666Q420 662 369 643T271 587T198 489T170 349Z" />
<glyph unicode="7" glyph-name="seven" horiz-adv-x="550" d="M75 715H520V666Q388 381 236 0H121Q268 318 439 625H162L127 501L75 512V715Z" />
<glyph unicode="8" glyph-name="eight" horiz-adv-x="590" d="M549 188Q549 91 475 38T299 -15Q199 -15 129 30T59 162Q59 294 203 361Q152 387 122 434T91 532Q91 605 152 660T314 715Q401 715 458 672T516 550Q516 432 395 372Q427 355 449 342T496 305T535
253T549 188ZM445 158Q445 175 443 189T433 216T420 238T401 258T379 275T352 291T324 305T291 320T257 335Q219 316 192 272T164 177Q164 109 205 75T305 41Q361 41 403 72T445 158ZM194 549Q194 483 244 449Q295 417 343 396Q411 459 411 552Q411 604 382 631T306
659Q259 659 227 630T194 549Z" />
<glyph unicode="9" glyph-name="nine" horiz-adv-x="605" d="M162 490Q162 419 203 380T306 340Q383 340 445 400Q445 520 406 588T291 657Q229 657 196 612T162 490ZM440 351Q366 281 263 281Q174 281 113 332T52 481Q52 575 120 643T290 711Q416 711 485 634T555
415Q555 312 517 227T419 92T289 15T152 -11L134 34Q190 38 241 57T339 113T412 211T440 351Z" />
<glyph unicode=":" glyph-name="colon" horiz-adv-x="305" d="M80 55Q106 103 154 128Q200 103 225 57Q197 9 151 -16Q104 8 80 55ZM80 447Q106 495 154 520Q200 495 225 449Q197 401 151 376Q104 400 80 447Z" />
<glyph unicode=";" glyph-name="semicolon" horiz-adv-x="322" d="M93 447Q119 495 167 520Q213 495 238 449Q210 401 164 376Q117 400 93 447ZM238 51Q246 18 235 -31T196 -122T135 -175L115 -150Q148 -128 159 -91T164 -22Q117 2 93 49Q119 97 167 122Q213 97 238 51Z" />
<glyph unicode="&lt;" glyph-name="less" horiz-adv-x="849" d="M120 270V332L729 579V501L223 301L729 101V23L120 270Z" />
<glyph unicode="=" glyph-name="equal" horiz-adv-x="834" d="M120 361V432H714V361H120ZM120 173V244H714V173H120Z" />
<glyph unicode="&gt;" glyph-name="greater" horiz-adv-x="849" d="M729 332V270L120 23V101L626 301L120 501V579L729 332Z" />
<glyph unicode="?" glyph-name="question" horiz-adv-x="479" d="M168 55Q194 103 242 128Q288 103 313 57Q285 9 239 -16Q192 8 168 55ZM145 640L137 536L88 529L57 669Q135 712 235 712Q309 712 359 678T409 576Q409 528 390 492T343 434T289 396T242 359T222
317Q222 268 266 268Q292 268 305 304L341 276Q330 246 309 231T269 213Q216 206 182 235T148 324Q148 353 173 384T229 439T285 496T311 560Q311 606 282 631T210 656Q176 656 145 640Z" />
<glyph unicode="@" glyph-name="at" horiz-adv-x="817" d="M535 499L540 537H615L552 128Q643 137 694 213T746 390Q746 520 666 598T449 676Q289 676 186 567T83 293Q83 123 180 28T417 -68Q547 -68 685 -9Q689 -23 692 -28Q693 -33 695 -37T698 -45L699 -48Q661
-70 581 -95T416 -120Q233 -120 122 -4T11 282Q11 349 28 412T82 533T170 634T294 702T453 728Q540 728 607 700T715 623T776 516T797 392Q797 261 723 166T526 70Q507 70 493 72Q488 73 482 91Q478 100 477 108L502 236Q482 200 458 165T396 93T327 57Q274 57
241 97T207 218Q207 354 282 452T446 550Q509 550 535 499ZM520 453Q520 494 463 494Q419 494 385 464T332 389T304 304T295 235Q295 199 306 172T343 144Q385 144 421 187T478 288T509 391T520 453Z" />
<glyph unicode="A" glyph-name="A" horiz-adv-x="674" d="M619 62L689 45L679 0H449V35L520 57L456 220H181L120 60L201 45L191 0H-10V35L61 60L302 700H375L619 62ZM318 584L201 275H436L318 584Z" />
<glyph unicode="B" glyph-name="B" horiz-adv-x="639" d="M329 0H35V35L130 64V636L35 655L45 700H329Q439 700 500 654T561 523Q561 454 517 417T409 370V365Q483 363 538 319T594 198Q594 88 527 44T329 0ZM230 55H329Q411 55 450 96T489 197Q489 252 450 293T343
335H230V55ZM230 385H345Q389 385 422 420T456 519Q456 578 423 611T329 645H230V385Z" />
<glyph unicode="C" glyph-name="C" horiz-adv-x="656" d="M552 491L518 632Q480 656 401 656Q296 656 223 577T150 349Q150 191 222 119T410 47Q468 47 524 74L560 227L611 217V48Q495 -9 386 -9Q242 -9 144 85T45 349Q45 458 97 542T234 668T418 711Q513 711
602 670V501L552 491Z" />
<glyph unicode="D" glyph-name="D" horiz-adv-x="724" d="M679 348Q679 198 586 99T330 0H35V35L130 64V636L35 655L45 700H330Q497 700 588 600T679 348ZM313 645H230V55H313Q436 55 505 133T574 348Q574 489 510 567T313 645Z" />
<glyph unicode="E" glyph-name="E" horiz-adv-x="622" d="M493 55L525 171L577 160V0H35V35L130 64V636L35 655L45 700H556V536L506 526L474 645H230V391L399 395L426 462L461 452V275L433 265L399 331L230 336V55H493Z" />
<glyph unicode="F" glyph-name="F" horiz-adv-x="586" d="M230 391L399 395L426 462L461 452V275L433 265L399 331L230 336V64L344 45L334 0H35V35L130 64V636L35 655L45 700H556V531L506 521L474 645H230V391Z" />
<glyph unicode="G" glyph-name="G" horiz-adv-x="716" d="M630 670V501L579 491L545 632Q507 656 428 656Q303 656 227 578T150 349Q150 268 173 207T236 112T318 62T406 45Q461 45 530 71V252L430 271V306H686V271L630 253V50Q508 -10 392 -10Q247 -10 146 85T45
349Q45 441 76 512T160 627T282 692T429 714Q533 714 630 670Z" />
<glyph unicode="H" glyph-name="H" horiz-adv-x="800" d="M670 64L765 45L755 0H475V35L570 64V329H230V64L325 45L315 0H35V35L130 64V636L35 655L45 700H325V665L230 636V384H570V636L475 655L485 700H765V665L670 636V64Z" />
<glyph unicode="I" glyph-name="I" horiz-adv-x="360" d="M325 665L230 636V64L325 45L315 0H35V35L130 64V636L35 655L45 700H325V665Z" />
<glyph unicode="J" glyph-name="J" horiz-adv-x="447" d="M303 42Q255 -13 173 -13Q97 -13 15 27V191L67 201L103 53Q132 43 158 43T202 53T231 77T246 117T252 163T254 218V261V636L159 655L169 700H442V665L354 636V269Q354 213 353 187T340 116T303 42Z" />
<glyph unicode="K" glyph-name="K" horiz-adv-x="684" d="M306 328H230V64L315 45L305 0H35V35L130 64V636L35 655L45 700H305V665L230 636V383H320L511 645L447 655L457 700H658V665L573 637L388 385L604 63L699 45L689 0H526L306 328Z" />
<glyph unicode="L" glyph-name="L" horiz-adv-x="557" d="M453 55L487 199L537 189V0H30V35L125 64V636L30 655L40 700H330V665L225 636V55H453Z" />
<glyph unicode="M" glyph-name="M" horiz-adv-x="945" d="M910 665L815 636V64L910 45L900 0H621V35L715 63V567L468 64H433L185 554V64L280 45L270 0H30V35L125 64V636L31 655L41 700H218L470 200L716 700H910V665Z" />
<glyph unicode="N" glyph-name="N" horiz-adv-x="779" d="M40 700H185L594 157V636L500 655L510 700H749V665L654 636V0H594L185 544V64L280 45L270 0H30V35L125 64V636L30 655L40 700Z" />
<glyph unicode="O" glyph-name="O" horiz-adv-x="767" d="M395 41Q492 41 554 127T617 332Q617 419 593 490T511 610T372 659Q275 659 213 573T150 368Q150 281 174 210T256 90T395 41ZM383 714Q489 714 568 662T684 529T722 349Q722 194 630 90T384 -14Q277 -14
199 38T83 171T45 351Q45 506 137 610T383 714Z" />
<glyph unicode="P" glyph-name="P" horiz-adv-x="600" d="M45 700H294Q338 700 370 697T443 682T508 647T552 582T570 482Q570 272 294 272H230V64L345 45L335 0H35V35L130 64V636L35 655L45 700ZM294 645H230V327H294Q331 327 357 332T410 351T451 399T465 482Q465
645 294 645Z" />
<glyph unicode="Q" glyph-name="Q" horiz-adv-x="783" d="M383 714Q489 714 568 662T684 529T722 349Q722 218 655 121T470 -4Q510 -66 588 -84T738 -87V-124Q688 -144 634 -149T528 -145T430 -101T359 -13Q260 -7 187 46T80 178T45 351Q45 506 137 610T383 714ZM395
41Q492 41 554 127T617 332Q617 419 593 490T511 610T372 659Q275 659 213 573T150 368Q150 281 174 210T256 90T395 41Z" />
<glyph unicode="R" glyph-name="R" horiz-adv-x="672" d="M45 700H294Q337 700 371 697T445 680T512 645T557 583T575 487Q575 360 448 313L601 61L682 45L672 0H521L351 290Q321 287 294 287H230V64L325 45L315 0H35V35L130 64V636L35 655L45 700ZM294 645H230V342H294Q330
342 358 347T413 367T455 412T470 487Q470 645 294 645Z" />
<glyph unicode="S" glyph-name="S" horiz-adv-x="558" d="M55 33V197L105 207L142 66Q199 45 251 45Q398 45 398 173Q398 210 380 237T331 280T266 312T194 344T128 382T80 440T61 526Q61 590 100 633T193 692T311 708Q433 708 476 665V501L426 491L388 636Q345
653 306 653Q246 653 206 621T166 525Q166 489 191 461T253 417T334 379T415 334T478 270T503 173Q503 122 482 85T424 28T346 -1T255 -10Q192 -10 134 3T55 33Z" />
<glyph unicode="T" glyph-name="T" horiz-adv-x="627" d="M103 645L70 501L20 511V700H607V511L557 501L524 645H365V64L460 45L450 0H170V35L265 64V645H103Z" />
<glyph unicode="U" glyph-name="U" horiz-adv-x="753" d="M320 665L225 636V232Q225 139 273 92T414 45Q450 45 477 52T523 70T553 100T572 134T581 176T584 218T585 262Q585 271 585 276L583 636L488 655L498 700H738V665L653 636V255Q653 -10 410 -10Q266 -10
196 48T125 233V636L30 655L40 700H320V665Z" />
<glyph unicode="V" glyph-name="V" horiz-adv-x="649" d="M366 0H297L52 636L-25 655L-15 700H226V665L151 643L349 131L528 640L442 655L452 700H669V665L591 637L366 0Z" />
<glyph unicode="W" glyph-name="W" horiz-adv-x="1052" d="M333 0H272L80 637L0 655L10 700H264V665L178 641L324 157L511 700H568L739 155L906 639L818 655L828 700H1052V665L969 639L750 0H688L519 538L333 0Z" />
<glyph unicode="X" glyph-name="X" horiz-adv-x="646" d="M656 665L579 639L381 363L575 64L653 45L643 0H400V35L468 54L313 293L138 56L211 45L201 0H-10V35L69 62L279 344L90 636L7 655L17 700H269V665L198 645L348 414L511 644L441 655L451 700H656V665Z" />
<glyph unicode="Y" glyph-name="Y" horiz-adv-x="630" d="M183 35L278 64V298L63 636L-15 655L-5 700H240V665L170 645L344 373L510 643L436 655L446 700H655V665L574 637L378 319V64L473 45L463 0H183V35Z" />
<glyph unicode="Z" glyph-name="Z" horiz-adv-x="610" d="M560 0H45V49L428 645H144L106 501L56 511L57 700H545V649L164 55H473L510 196L560 186V0Z" />
<glyph unicode="[" glyph-name="bracketleft" horiz-adv-x="335" d="M140 -149V736H300V691H220V-104H300V-149H140Z" />
<glyph unicode="\" glyph-name="backslash" horiz-adv-x="598" d="M15 700H98L558 -157H475L15 700Z" />
<glyph unicode="]" glyph-name="bracketright" horiz-adv-x="335" d="M195 736V-149H35V-104H115V691H35V736H195Z" />
<glyph unicode="^" glyph-name="asciicircum" horiz-adv-x="992" d="M546 716L792 401H737L496 652L255 401H200L446 716H546Z" />
<glyph unicode="_" glyph-name="underscore" horiz-adv-x="514" d="M-30 -165V-89H544V-165H-30Z" />
<glyph unicode="`" glyph-name="grave" horiz-adv-x="527" d="M263 582L113 750H211L318 582H263Z" />
<glyph unicode="a" glyph-name="a" horiz-adv-x="537" d="M507 0H355V81Q325 45 273 19T178 -8Q122 -8 84 27T45 123Q45 175 71 205T161 253Q257 278 355 289V371Q355 424 327 449T253 474Q198 474 159 460L131 346L79 355V485Q178 529 258 529Q445 529 445 370V63L517
46L507 0ZM145 131Q145 88 165 72T220 55Q254 55 295 80T355 133V247Q271 237 227 225Q145 203 145 131Z" />
<glyph unicode="b" glyph-name="b" horiz-adv-x="598" d="M98 26V666L15 682L10 726L188 750V463Q262 528 346 528Q434 528 496 460T558 281Q558 136 480 62T276 -13Q173 -13 98 26ZM188 407V71Q246 42 295 42Q370 42 414 100T459 253Q459 345 420 398T315 451Q258
451 188 407Z" />
<glyph unicode="c" glyph-name="c" horiz-adv-x="498" d="M415 339L387 457Q342 474 309 474Q235 474 188 415T140 267Q140 179 183 117T310 55Q391 55 456 104L478 66Q398 -11 291 -11Q185 -11 113 62T40 260Q40 383 119 456T306 529Q390 529 465 482V349L415 339Z" />
<glyph unicode="d" glyph-name="d" horiz-adv-x="605" d="M413 0V57Q342 -8 257 -8Q170 -8 105 62T40 243Q40 367 116 445T295 523Q358 523 413 489V666L330 682L325 726L502 750V63L570 46L560 0H413ZM207 58T276 58T413 118V415Q362 467 302 467Q237 467 189
410T140 264Q140 173 173 116Z" />
<glyph unicode="e" glyph-name="e" horiz-adv-x="540" d="M495 268H140Q140 171 190 114T318 56Q389 56 465 105L487 67Q390 -9 284 -9Q181 -9 111 64T40 262Q40 346 77 408T167 499T281 528Q495 528 495 268ZM143 322H395Q395 396 361 435T278 474Q227 474 186
433T143 322Z" />
<glyph unicode="f" glyph-name="f" horiz-adv-x="365" d="M226 757T299 757T430 723V590L380 580L352 690Q328 702 299 702Q253 702 233 674T212 575V502H345V447H212V62L323 48L313 0H35V30L122 60V447H35V502H122L123 576Q123 668 174 712Z" />
<glyph unicode="g" glyph-name="g" horiz-adv-x="584" d="M266 161Q231 161 202 168Q161 138 161 102Q161 84 177 73T226 61H414Q474 59 503 30T533 -44Q533 -135 441 -191T234 -247Q141 -247 88 -214T35 -114Q35 -50 122 7Q82 35 82 83Q82 110 101 137T153 185Q53
231 53 339Q53 434 114 482T265 530Q348 530 399 489Q433 489 498 494Q518 495 569 499V430L444 433Q463 394 463 339Q463 246 407 204T266 161ZM268 216Q316 216 339 249T363 339Q363 399 336 438T258 477Q208 477 181 439T153 342Q153 285 181 251T268 216ZM366
-24H247Q196 -24 160 -11Q127 -50 127 -87Q127 -189 277 -189Q349 -189 407 -156T465 -79Q465 -49 444 -37T366 -24Z" />
<glyph unicode="h" glyph-name="h" horiz-adv-x="618" d="M198 750V445Q230 484 278 506T371 529Q522 529 522 345L523 62L603 45L593 0H356V30L433 60V325Q433 396 411 421T337 447Q296 447 257 433T198 396V62L273 48L263 0H20V30L108 60V669L25 685L20 726L198 750Z" />
<glyph unicode="i" glyph-name="i" horiz-adv-x="313" d="M213 527V62L288 48L278 0H35V30L123 60V447L42 462L37 503L213 527ZM90 673Q116 717 160 742Q204 719 227 675Q202 632 157 606Q113 629 90 673Z" />
<glyph unicode="j" glyph-name="j" horiz-adv-x="282" d="M112 -41V447L31 462L26 503L202 527V-43Q202 -131 151 -182T28 -234Q-32 -234 -85 -199V-66L-35 -56L-7 -165Q23 -177 44 -177Q66 -177 81 -166T102 -132T110 -89T112 -41ZM80 673Q106 717 150 742Q194
719 217 675Q192 632 147 606Q103 629 80 673Z" />
<glyph unicode="k" glyph-name="k" horiz-adv-x="565" d="M198 179V62L273 48L263 0H20V30L108 60V670L27 685L22 726L198 750V249L391 445L327 455L337 503H557V473L461 437L343 321L509 61L580 48L570 0H441L277 257L198 179Z" />
<glyph unicode="l" glyph-name="l" horiz-adv-x="318" d="M208 750V62L293 48L283 0H30V30L118 60V670L37 685L32 726L208 750Z" />
<glyph unicode="m" glyph-name="m" horiz-adv-x="932" d="M524 62L601 45L591 0H362V30L434 60V340Q434 394 407 420T335 447Q302 447 267 433T212 396V62L283 48L273 0H36V30L123 60V443L40 459L35 503L212 527V445Q244 485 291 507T382 529Q476 529 511 425Q544
472 592 500T689 529Q753 529 794 481T836 340V62L917 45L907 0H674V30L746 60V340Q746 393 717 420T645 447Q573 447 524 382V62Z" />
<glyph unicode="n" glyph-name="n" horiz-adv-x="632" d="M537 345V62L617 45L607 0H370V30L447 60V325Q447 396 425 421T351 447Q310 447 271 433T212 396V62L288 48L278 0H36V30L123 60V443L40 459L35 503L212 527V445Q244 484 292 506T385 529Q533 529 537 345Z" />
<glyph unicode="o" glyph-name="o" horiz-adv-x="594" d="M304 47Q379 47 416 107T454 253Q454 347 415 411T290 475Q215 475 178 415T140 269Q140 175 179 111T304 47ZM289 530Q416 530 485 452T554 264T487 74T305 -8Q178 -8 109 70T40 258T107 448T289 530Z" />
<glyph unicode="p" glyph-name="p" horiz-adv-x="604" d="M202 527V462Q276 529 360 529Q446 529 505 458T564 276Q564 157 498 78T325 -2Q268 -2 202 24V-163L298 -177L288 -225H25V-195L112 -165V443L31 459L26 503L202 527ZM202 404V99Q270 53 324 53Q389 53
427 112T465 259Q465 349 430 401T331 453Q269 453 202 404Z" />
<glyph unicode="q" glyph-name="q" horiz-adv-x="575" d="M398 103V460Q358 471 320 471Q229 471 185 405T140 234Q140 155 179 106T280 57Q328 57 398 103ZM399 -165L398 50Q331 -11 248 -11Q163 -11 102 53T40 220Q40 362 118 444T328 526Q399 526 488 497L489
-163L565 -177L555 -225H297V-195L399 -165Z" />
<glyph unicode="r" glyph-name="r" horiz-adv-x="443" d="M433 513V379L381 370L354 446Q349 447 334 447Q301 447 267 433T212 396V62L304 48L294 0H36V30L123 60V443L40 459L35 503L212 527V445Q289 527 367 527Q400 527 433 513Z" />
<glyph unicode="s" glyph-name="s" horiz-adv-x="460" d="M47 24V158L99 167L126 68Q180 45 221 45Q268 45 295 66T324 130Q325 162 298 184T232 222T153 255T85 306T57 385Q57 434 90 467T168 514T266 527Q362 527 395 494V369L343 360L316 462Q283 472 247 472Q150
472 150 400Q150 367 177 343T244 304T323 271T390 221T418 145Q418 63 362 27T220 -10Q124 -10 47 24Z" />
<glyph unicode="t" glyph-name="t" horiz-adv-x="393" d="M359 93L378 69Q355 33 311 11T222 -12Q109 -12 109 129V447H30V482L114 512L149 622H199V502H359V447H199V153Q199 96 209 77T257 58Q302 58 359 93Z" />
<glyph unicode="u" glyph-name="u" horiz-adv-x="637" d="M110 176V459L30 476L40 521H200V196Q200 124 222 99T296 74Q337 74 376 88T435 125V459L359 473L369 521H524V62L605 44L594 0H435V76Q403 37 355 15T262 -8Q111 -8 110 176Z" />
<glyph unicode="v" glyph-name="v" horiz-adv-x="549" d="M434 462L363 472L373 520H564V490L492 460L309 0H250L67 462L-5 475L5 520H235V490L163 465L298 121L434 462Z" />
<glyph unicode="w" glyph-name="w" horiz-adv-x="812" d="M680 462L611 472L621 520H812V490L736 460L612 0H556L415 367L297 0H243L68 462L-5 475L5 520H234V490L156 465L283 136L406 520H447L593 140L680 462Z" />
<glyph unicode="x" glyph-name="x" horiz-adv-x="576" d="M205 472L308 324L414 464L358 472L368 520H559V490L478 459L341 277L490 63L571 45L561 0H338V30L391 48L275 214L156 54L222 48L212 0H15V30L88 55L242 261L105 458L28 475L38 520H264V490L205 472Z" />
<glyph unicode="y" glyph-name="y" horiz-adv-x="534" d="M220 -42Q240 7 244 17L64 458L-5 475L5 520H219V490L159 465L283 158L289 130L427 462L366 472L376 520H554V490L489 461Q455 376 401 252T330 86Q263 -83 237 -129Q182 -230 81 -230Q50 -230 17 -220L45
-137Q74 -144 104 -144Q119 -144 131 -142T153 -134T169 -123T184 -107T195 -89T207 -66T220 -42Z" />
<glyph unicode="z" glyph-name="z" horiz-adv-x="501" d="M125 465L98 358L46 367L45 520H457V491L169 55H382L409 161L461 152V0H45V29L332 465H125Z" />
<glyph unicode="{" glyph-name="braceleft" horiz-adv-x="427" d="M50 270V303H91Q162 303 162 386V572Q162 600 166 622T179 660T198 687T222 705T250 715T280 721T311 723T342 723Q352 723 357 723V691Q311 691 278 670T245 601V399Q245 353 219 322T175 287Q193
283 219 252T245 175V-27Q245 -64 274 -91T357 -118V-150Q162 -165 162 1V187Q162 270 91 270H50Z" />
<glyph unicode="|" glyph-name="bar" horiz-adv-x="471" d="M271 -245H200V776H271V-245Z" />
<glyph unicode="}" glyph-name="braceright" horiz-adv-x="427" d="M357 303V270H316Q245 270 245 187V1Q245 -165 50 -150V-118Q104 -118 133 -91T162 -27V175Q162 220 188 251T232 287Q214 291 188 322T162 399V601Q162 648 129 669T50 691V723Q132 723 160
715Q245 690 245 572V386Q245 303 316 303H357Z" />
<glyph unicode="~" glyph-name="asciitilde" horiz-adv-x="650" d="M288 269Q280 272 265 279T240 290T218 296T196 298Q176 291 143 274L103 252L68 291Q78 301 121 329T192 366Q243 385 347 338Q355 335 370 328T396 317T418 311T439 309Q449 310 493 333L533
355L571 318Q561 308 516 279T444 241Q388 222 288 269Z" />
<glyph unicode="&#xa0;" glyph-name="nbspace" horiz-adv-x="260" />
<glyph unicode="&#xa1;" glyph-name="exclamdown" horiz-adv-x="365" d="M211 500L243 44Q231 22 220 11T185 -14Q146 10 125 45L156 500H211ZM110 650Q134 697 181 721Q227 696 255 648Q230 602 184 577Q136 602 110 650Z" />
<glyph unicode="&#xa2;" glyph-name="cent" horiz-adv-x="488" d="M259 -77V-10Q162 -1 99 71T35 262Q35 381 98 450T259 529V598H309V530Q389 525 460 484V346L410 341L385 439Q367 470 309 474V55Q390 57 451 104L473 66Q401 -1 309 -9V-77H259ZM133 264Q133
176 168 125T259 61V472Q133 453 133 264Z" />
<glyph unicode="&#xa3;" glyph-name="sterling" horiz-adv-x="557" d="M59 307V362H142Q125 439 125 485Q125 541 143 582T192 647T261 681T340 692Q441 692 509 646V513L459 503L431 614Q405 637 345 637Q293 637 259 602T224 496Q224 450 238 362H431V307H246Q252
253 252 228Q252 127 194 55H472L493 142L535 151V0H30V35L125 64Q166 126 166 204Q166 242 153 307H59Z" />
<glyph unicode="&#xa4;" glyph-name="currency" horiz-adv-x="531" d="M82 310Q82 365 116 415L45 486L90 531L162 460Q208 492 264 492Q322 492 368 459L441 531L486 486L413 413Q445 367 445 310Q445 250 411 204L486 130L441 85L365 160Q321 129 264 129Q208
129 165 158L90 85L45 130L118 202Q82 251 82 310ZM148 358T148 310T182 229T264 195T345 228T379 310T346 392T264 426T182 392Z" />
<glyph unicode="&#xa5;" glyph-name="yen" horiz-adv-x="610" d="M124 277H268V298L53 636L-15 655L-5 700H225V665L160 645L335 371L503 643L444 655L454 700H630V665L564 637L368 319V277H513V237H368V187H513V147H368V64L463 45L453 0H173V35L268 64V147H124V187H268V237H124V277Z"
/>
<glyph unicode="&#xa6;" glyph-name="brokenbar" horiz-adv-x="559" d="M310 301H239V686H310V301ZM310 -194H239V191H310V-194Z" />
<glyph unicode="&#xa7;" glyph-name="section" horiz-adv-x="651" d="M529 263Q530 252 530 235Q530 187 513 153T453 85Q513 23 513 -46Q513 -95 475 -128T387 -175T284 -188Q188 -188 155 -155V-35L207 -31L234 -127Q267 -137 303 -137Q349 -137 385 -118T422
-61Q422 -32 393 -2T320 58T234 118T158 190T122 276Q121 287 121 305Q121 353 138 387T198 454Q138 514 138 585Q138 634 176 667T264 714T367 727Q463 727 496 694V574L444 570L417 666Q384 676 348 676Q302 676 266 657T229 600Q229 571 258 541T331 481T417
421T493 349T529 263ZM453 205Q453 246 423 279T325 358T232 423Q211 400 205 381T198 334Q198 302 221 271T271 220T346 168T419 116Q441 138 447 157T453 205Z" />
<glyph unicode="&#xa8;" glyph-name="dieresis" horiz-adv-x="372" d="M230 658Q253 700 295 722Q335 700 357 660Q332 618 292 596Q251 617 230 658ZM19 658Q42 700 84 722Q124 700 146 660Q121 618 81 596Q40 617 19 658Z" />
<glyph unicode="&#xa9;" glyph-name="copyright" horiz-adv-x="900" d="M290 748T450 748T722 634T835 362T723 90T450 -24T178 90T65 362T177 634ZM450 696Q314 696 221 597T128 362T221 128T450 28Q585 28 678 127T771 362T678 596T450 696ZM533 207L559 304L589
299L590 184Q523 152 454 152Q368 152 309 208T250 366Q250 459 318 520T476 582Q527 582 584 556L582 441L553 437L532 518Q494 533 463 533Q409 533 376 491T343 366Q343 278 377 239T467 199Q499 199 533 207Z" />
<glyph unicode="&#xaa;" glyph-name="ordfeminine" horiz-adv-x="335" d="M319 394H217V443Q200 422 166 406T106 389Q71 389 48 410T25 469Q25 500 41 518T95 547Q148 561 217 569V618Q217 649 197 664T150 680Q122 680 97 666L80 597L46 603V681Q47 682 57 686T69
692T81 698T94 703T107 706T122 710T136 712T154 713Q210 713 245 690T281 617V432L325 421L319 394ZM90 473Q90 446 102 437T136 427Q157 427 181 442T217 474V543Q169 538 140 529Q90 517 90 473Z" />
<glyph unicode="&#xab;" glyph-name="guillemotleft" horiz-adv-x="508" d="M135 270V268Q135 267 136 267Q173 230 214 148T264 31L236 19Q197 78 139 147T40 256V266Q81 305 139 374T236 503L264 491Q257 460 216 386T136 273L135 272V270ZM329 270V268Q329
267 330 267Q367 230 408 148T458 31L430 19Q396 76 339 145T239 256V266Q282 307 339 376T430 503L458 491Q451 460 410 386T330 273L329 272V270Z" />
<glyph unicode="&#xac;" glyph-name="logicalnot" horiz-adv-x="647" d="M33 342V413H607V156H536V342H33Z" />
<glyph unicode="&#xad;" glyph-name="uni00AD" horiz-adv-x="310" d="M24 234V305H285V234H24Z" />
<glyph unicode="&#xae;" glyph-name="registered" horiz-adv-x="900" d="M559 159L465 343H395V205L450 188L446 159H269V184L324 205V526L269 547L277 575H438Q607 575 607 453Q607 382 533 350L615 205L662 188L654 159H559ZM438 525H395V389H438Q459 389 472
391T500 399T522 420T530 461Q530 480 524 493T512 512T489 522T466 525T438 525ZM290 748T450 748T722 634T835 362T723 90T450 -24T178 90T65 362T177 634ZM450 696Q314 696 221 597T128 362T221 128T450 28Q585 28 678 127T771 362T678 596T450 696Z" />
<glyph unicode="&#xaf;" glyph-name="overscore" horiz-adv-x="524" d="M105 625V696H419V625H105Z" />
<glyph unicode="0;" glyph-name="degree" horiz-adv-x="336" d="M30 581Q30 639 70 679T167 720Q225 720 265 680T306 581Q306 524 266 484T167 444Q110 444 70 484T30 581ZM82 581Q82 545 106 521T167 496Q204 496 229 520T254 581Q254 618 229 643T167 668Q131
668 107 643T82 581Z" />
<glyph unicode="1;" glyph-name="plusminus" horiz-adv-x="744" d="M120 22V93H624V22H120ZM120 400V471H334V684H410V471H624V400H410V176H334V400H120Z" />
<glyph unicode="2;" glyph-name="twosuperior" horiz-adv-x="341" d="M40 354V386Q61 406 90 433T131 473T162 503T186 530T202 551T214 574T219 596T221 623Q221 676 153 676Q120 676 96 658L75 593L50 597V684Q71 699 102 710T158 721Q214 721 252 696T291
620Q291 606 289 594T278 568T263 544T238 516T208 486T167 448T120 404H251L261 444L287 440V354H40Z" />
<glyph unicode="3;" glyph-name="threesuperior" horiz-adv-x="362" d="M312 462Q312 408 270 380T171 351Q111 351 50 374V467L80 472L98 411Q120 396 159 396Q242 396 242 463Q242 490 228 505T182 527H149V562H179Q233 573 233 624Q233 676 167 676Q129
676 107 662L91 602L61 607V699Q118 721 179 721Q231 721 267 700T303 630Q303 598 280 576T224 545Q312 538 312 462Z" />
<glyph unicode="4;" glyph-name="acute" horiz-adv-x="212" d="M200 748L70 565H15L102 748H200Z" />
<glyph unicode="5;" glyph-name="mu" horiz-adv-x="651" d="M200 520V196Q200 124 222 99T296 74Q337 74 376 88T435 125V520H524V62L605 44L594 0H435V66Q374 -8 262 -8Q227 -8 200 2V-224H110V520H200Z" />
<glyph unicode="6;" glyph-name="paragraph" horiz-adv-x="541" d="M502 688V657L421 627V-121H366V648H293V270Q251 270 219 275T155 294T103 332T69 396T56 492Q56 552 73 591T123 651T193 679T282 688H502Z" />
<glyph unicode="7;" glyph-name="middot" horiz-adv-x="309" d="M70 303Q96 351 144 376Q190 351 215 305Q187 257 141 232Q94 256 70 303Z" />
<glyph unicode="8;" glyph-name="cedilla" horiz-adv-x="319" d="M127 -61V15H182V-32Q254 -42 254 -109Q254 -148 224 -178T154 -223T72 -240L65 -210Q163 -186 169 -142Q182 -72 127 -61Z" />
<glyph unicode="9;" glyph-name="onesuperior" horiz-adv-x="308" d="M200 398L258 383L253 355H74V378L135 398V657L50 639V667Q81 678 169 721H200V398Z" />
<glyph unicode="a;" glyph-name="ordmasculine" horiz-adv-x="395" d="M365 535Q365 455 324 405T199 355Q114 355 72 405T30 535Q30 618 71 669T198 720Q282 720 323 669T365 535ZM189 682Q142 682 123 644T104 536Q104 473 130 433T205 393Q249 393 271
431T293 535T268 641T189 682Z" />
<glyph unicode="b;" glyph-name="guillemotright" horiz-adv-x="508" d="M373 270L372 271V272V273Q334 311 293 385T244 491L272 503Q307 447 366 377T468 266V256Q425 215 366 145T272 19L244 31Q252 65 293 147T372 267V268Q372 269 373 270ZM179 270L178
271V272V273Q140 311 99 385T50 491L78 503Q112 446 169 377T269 266V256Q226 215 169 146T78 19L50 31Q58 65 99 147T178 267V268Q178 269 179 270Z" />
<glyph unicode="c;" glyph-name="onequarter" horiz-adv-x="754" d="M543 679H618L232 -32H157L543 679ZM175 358L233 343L228 315H49V338L110 358V617L25 599V627Q56 638 144 681H175V358ZM559 18L615 38V76H432V100L638 367H675V119H724V76H675V38L724 23L718
0H559V18ZM506 119H615V260L506 119Z" />
<glyph unicode="d;" glyph-name="onehalf" horiz-adv-x="795" d="M543 679H618L232 -32H157L543 679ZM175 358L233 343L228 315H49V338L110 358V617L25 599V627Q56 638 144 681L175 679V358ZM514 0V32Q535 52 564 79T605 119T636 149T660 176T676 197T688
220T693 242T695 269Q695 322 627 322Q594 322 570 304L549 239L524 243V330Q545 345 576 356T632 367Q688 367 726 342T765 266Q765 252 763 240T752 214T737 190T712 162T682 132T641 94T594 50H725L735 90L761 86V0H514Z" />
<glyph unicode="e;" glyph-name="threequarters" horiz-adv-x="785" d="M533 679H608L222 -32H147L533 679ZM504 0V32Q525 52 554 79T595 119T626 149T650 176T666 197T678 220T683 242T685 269Q685 322 617 322Q584 322 560 304L539 239L514 243V330Q535
345 566 356T622 367Q678 367 716 342T755 266Q755 252 753 240T742 214T727 190T702 162T672 132T631 94T584 50H715L725 90L751 86V0H504ZM287 427Q287 373 245 345T146 316Q86 316 25 339V432L55 437L73 376Q95 361 134 361Q217 361 217 428Q217 455 203 470T157
492H124V527H154Q208 538 208 589Q208 641 142 641Q104 641 82 627L66 567L36 572V664Q93 686 154 686Q206 686 242 665T278 595Q278 563 255 541T199 510Q287 503 287 427Z" />
<glyph unicode="f;" glyph-name="questiondown" horiz-adv-x="479" d="M168 646Q192 693 239 717Q285 692 313 644Q288 598 242 573Q194 598 168 646ZM137 165L145 61Q176 45 210 45Q252 45 281 70T311 141Q311 172 286 205T230 261T174 316T148 377Q148 430
176 459T250 489Q318 489 341 425L305 397Q292 433 266 433Q222 433 222 384Q222 361 241 342T288 306T343 267T389 210T409 125Q409 57 360 23T235 -11Q135 -11 57 32L88 172L137 165Z" />
<glyph unicode="0;" glyph-name="Agrave" horiz-adv-x="671" d="M620 62L690 45L680 0H450V35L521 57L457 220H182L121 60L202 45L192 0H-9V35L62 60L303 700H376L620 62ZM319 584L202 275H437L319 584ZM304 762L154 930H252L359 762H304Z" />
<glyph unicode="1;" glyph-name="Aacute" horiz-adv-x="674" d="M619 62L689 45L679 0H449V35L520 57L456 220H181L120 60L201 45L191 0H-10V35L61 60L302 700H375L619 62ZM318 584L201 275H436L318 584ZM499 928L369 745H314L401 928H499Z" />
<glyph unicode="2;" glyph-name="Acircumflex" horiz-adv-x="674" d="M619 62L689 45L679 0H449V35L520 57L456 220H181L120 60L201 45L191 0H-10V35L61 60L302 700H375L619 62ZM318 584L201 275H436L318 584ZM436 750L339 881L243 750H188L304 929V930H375L374
929L491 750H436Z" />
<glyph unicode="3;" glyph-name="Atilde" horiz-adv-x="674" d="M619 62L689 45L679 0H449V35L520 57L456 220H181L120 60L201 45L191 0H-10V35L61 60L302 700H375L619 62ZM318 584L201 275H436L318 584ZM324 804Q320 806 308 814T290 825T275 832T259 834Q245
828 221 804L193 777L162 810Q170 823 203 859T256 904Q294 923 366 875Q370 873 382 865T400 854T415 847T431 845Q440 846 469 875L497 902L528 869Q520 856 487 820T434 775Q396 756 324 804Z" />
<glyph unicode="4;" glyph-name="Adieresis" horiz-adv-x="674" d="M619 62L689 45L679 0H449V35L520 57L456 220H181L120 60L201 45L191 0H-10V35L61 60L302 700H375L619 62ZM318 584L201 275H436L318 584ZM384 838Q407 880 449 902Q489 880 511 840Q486
798 446 776Q405 797 384 838ZM173 838Q196 880 238 902Q278 880 300 840Q275 798 235 776Q194 797 173 838Z" />
<glyph unicode="5;" glyph-name="Aring" horiz-adv-x="674" d="M619 62L689 45L679 0H449V35L520 57L456 220H181L120 60L201 45L191 0H-10V35L61 60L302 700H375L619 62ZM318 584L201 275H436L318 584ZM222 805T222 854T255 937T338 971T421 937T455 854T421
772T338 738T256 771ZM271 854Q271 777 338 777Q406 777 406 854Q406 932 338 932Q271 932 271 854Z" />
<glyph unicode="6;" glyph-name="AE" horiz-adv-x="914" d="M82 60L163 45L153 0H-50V35L16 60L396 643L336 655L346 700H858V531L808 526L776 645H562V391L701 395L728 462H763V265H735L701 331L562 336V55H795L827 171L879 165V0H367V35L462 64V316H249L82
60ZM285 371H462V643L285 371Z" />
<glyph unicode="7;" glyph-name="Ccedilla" horiz-adv-x="656" d="M552 491L518 632Q480 656 401 656Q296 656 223 577T150 349Q150 191 222 119T410 47Q468 47 524 74L560 227L611 217V48Q495 -9 386 -9Q242 -9 144 85T45 349Q45 458 97 542T234 668T418
711Q513 711 602 670V501L552 491ZM335 -61V15H390V-32Q462 -42 462 -109Q462 -148 432 -178T362 -223T280 -240L273 -210Q371 -186 377 -142Q390 -72 335 -61Z" />
<glyph unicode="8;" glyph-name="Egrave" horiz-adv-x="622" d="M493 55L525 171L577 160V0H35V35L130 64V636L35 655L45 700H556V536L506 526L474 645H230V391L399 395L426 462L461 452V275L433 265L399 331L230 336V55H493ZM301 762L151 930H249L356 762H301Z" />
<glyph unicode="9;" glyph-name="Eacute" horiz-adv-x="622" d="M493 55L525 171L577 160V0H35V35L130 64V636L35 655L45 700H556V536L506 526L474 645H230V391L399 395L426 462L461 452V275L433 265L399 331L230 336V55H493ZM472 892L347 741H292L374 892H472Z" />
<glyph unicode="a;" glyph-name="Ecircumflex" horiz-adv-x="622" d="M493 55L525 171L577 160V0H35V35L130 64V636L35 655L45 700H556V536L506 526L474 645H230V391L399 395L426 462L461 452V275L433 265L399 331L230 336V55H493ZM425 750L328 881L232 750H177L293
929V930H364L363 929L480 750H425Z" />
<glyph unicode="b;" glyph-name="Edieresis" horiz-adv-x="622" d="M493 55L525 171L577 160V0H35V35L130 64V636L35 655L45 700H556V536L506 526L474 645H230V391L399 395L426 462L461 452V275L433 265L399 331L230 336V55H493ZM345 838Q368 880 410 902Q450
880 472 840Q447 798 407 776Q366 797 345 838ZM134 838Q157 880 199 902Q239 880 261 840Q236 798 196 776Q155 797 134 838Z" />
<glyph unicode="c;" glyph-name="Igrave" horiz-adv-x="360" d="M325 665L230 636V64L325 45L315 0H35V35L130 64V636L35 655L45 700H325V665ZM152 762L2 930H100L207 762H152Z" />
<glyph unicode="d;" glyph-name="Iacute" horiz-adv-x="360" d="M325 665L230 636V64L325 45L315 0H35V35L130 64V636L35 655L45 700H325V665ZM341 928L211 745H156L243 928H341Z" />
<glyph unicode="e;" glyph-name="Icircumflex" horiz-adv-x="360" d="M325 665L230 636V64L325 45L315 0H35V35L130 64V636L35 655L45 700H325V665ZM281 750L184 881L88 750H33L149 929V930H220L219 929L336 750H281Z" />
<glyph unicode="f;" glyph-name="Idieresis" horiz-adv-x="360" d="M325 665L230 636V64L325 45L315 0H35V35L130 64V636L35 655L45 700H325V665ZM222 838Q245 880 287 902Q327 880 349 840Q324 798 284 776Q243 797 222 838ZM11 838Q34 880 76 902Q116 880
138 840Q113 798 73 776Q32 797 11 838Z" />
<glyph unicode="&#xd0;" glyph-name="Eth" horiz-adv-x="724" d="M36 331V396H130V636L35 655L45 700H330Q497 700 588 600T679 348Q679 198 586 99T330 0H35V35L130 64V331H36ZM313 645H230V396H335V331H230V55H313Q436 55 505 133T574 348Q574 489 510 567T313 645Z" />
<glyph unicode="&#xd1;" glyph-name="Ntilde" horiz-adv-x="779" d="M40 700H185L594 157V636L500 655L510 700H749V665L654 636V0H594L185 544V64L280 45L270 0H30V35L125 64V636L30 655L40 700ZM369 804Q365 806 353 814T335 825T320 832T304 834Q290 828 266
804L238 777L207 810Q215 823 248 859T301 904Q339 923 411 875Q415 873 427 865T445 854T460 847T476 845Q485 846 514 875L542 902L573 869Q565 856 532 820T479 775Q441 756 369 804Z" />
<glyph unicode="&#xd2;" glyph-name="Ograve" horiz-adv-x="767" d="M395 41Q492 41 554 127T617 332Q617 419 593 490T511 610T372 659Q275 659 213 573T150 368Q150 281 174 210T256 90T395 41ZM383 714Q489 714 568 662T684 529T722 349Q722 194 630 90T384
-14Q277 -14 199 38T83 171T45 351Q45 506 137 610T383 714ZM371 762L221 930H319L426 762H371Z" />
<glyph unicode="&#xd3;" glyph-name="Oacute" horiz-adv-x="767" d="M395 41Q492 41 554 127T617 332Q617 419 593 490T511 610T372 659Q275 659 213 573T150 368Q150 281 174 210T256 90T395 41ZM383 714Q489 714 568 662T684 529T722 349Q722 194 630 90T384
-14Q277 -14 199 38T83 171T45 351Q45 506 137 610T383 714ZM536 928L406 745H351L438 928H536Z" />
<glyph unicode="&#xd4;" glyph-name="Ocircumflex" horiz-adv-x="767" d="M395 41Q492 41 554 127T617 332Q617 419 593 490T511 610T372 659Q275 659 213 573T150 368Q150 281 174 210T256 90T395 41ZM383 714Q489 714 568 662T684 529T722 349Q722 194 630 90T384
-14Q277 -14 199 38T83 171T45 351Q45 506 137 610T383 714ZM475 750L378 881L282 750H227L343 929V930H414L413 929L530 750H475Z" />
<glyph unicode="&#xd5;" glyph-name="Otilde" horiz-adv-x="767" d="M395 41Q492 41 554 127T617 332Q617 419 593 490T511 610T372 659Q275 659 213 573T150 368Q150 281 174 210T256 90T395 41ZM383 714Q489 714 568 662T684 529T722 349Q722 194 630 90T384
-14Q277 -14 199 38T83 171T45 351Q45 506 137 610T383 714ZM358 804Q354 806 342 814T324 825T309 832T293 834Q279 828 255 804L227 777L196 810Q204 823 237 859T290 904Q328 923 400 875Q404 873 416 865T434 854T449 847T465 845Q474 846 503 875L531 902L562
869Q554 856 521 820T468 775Q430 756 358 804Z" />
<glyph unicode="&#xd6;" glyph-name="Odieresis" horiz-adv-x="767" d="M395 41Q492 41 554 127T617 332Q617 419 593 490T511 610T372 659Q275 659 213 573T150 368Q150 281 174 210T256 90T395 41ZM383 714Q489 714 568 662T684 529T722 349Q722 194 630 90T384
-14Q277 -14 199 38T83 171T45 351Q45 506 137 610T383 714ZM421 838Q444 880 486 902Q526 880 548 840Q523 798 483 776Q442 797 421 838ZM210 838Q233 880 275 902Q315 880 337 840Q312 798 272 776Q231 797 210 838Z" />
<glyph unicode="&#xd7;" glyph-name="multiply" horiz-adv-x="584" d="M101 43L51 92L245 293L35 497L86 549L296 346L491 548L542 498L347 297L549 101L498 49L296 244L101 43Z" />
<glyph unicode="&#xd8;" glyph-name="Oslash" horiz-adv-x="767" d="M383 714Q464 714 533 682L576 761L626 736L581 653Q650 603 686 523T722 349Q722 194 630 90T384 -14Q305 -14 239 15L185 -85L136 -56L189 43Q119 93 82 174T45 351Q45 506 137 610T383 714ZM150
368Q150 209 228 116L500 620Q443 659 372 659Q275 659 213 573T150 368ZM395 41Q492 41 554 127T617 332Q617 486 542 580L272 77Q324 41 395 41Z" />
<glyph unicode="&#xd9;" glyph-name="Ugrave" horiz-adv-x="753" d="M320 665L225 636V232Q225 139 273 92T414 45Q450 45 477 52T523 70T553 100T572 134T581 176T584 218T585 262Q585 271 585 276L583 636L488 655L498 700H738V665L653 636V255Q653 -10 410
-10Q266 -10 196 48T125 233V636L30 655L40 700H320V665ZM353 762L203 930H301L408 762H353Z" />
<glyph unicode="&#xda;" glyph-name="Uacute" horiz-adv-x="753" d="M320 665L225 636V232Q225 139 273 92T414 45Q450 45 477 52T523 70T553 100T572 134T581 176T584 218T585 262Q585 271 585 276L583 636L488 655L498 700H738V665L653 636V255Q653 -10 410
-10Q266 -10 196 48T125 233V636L30 655L40 700H320V665ZM523 928L393 745H338L425 928H523Z" />
<glyph unicode="&#xdb;" glyph-name="Ucircumflex" horiz-adv-x="753" d="M320 665L225 636V232Q225 139 273 92T414 45Q450 45 477 52T523 70T553 100T572 134T581 176T584 218T585 262Q585 271 585 276L583 636L488 655L498 700H738V665L653 636V255Q653 -10
410 -10Q266 -10 196 48T125 233V636L30 655L40 700H320V665ZM467 750L370 881L274 750H219L335 929V930H406L405 929L522 750H467Z" />
<glyph unicode="&#xdc;" glyph-name="Udieresis" horiz-adv-x="753" d="M320 665L225 636V232Q225 139 273 92T414 45Q450 45 477 52T523 70T553 100T572 134T581 176T584 218T585 262Q585 271 585 276L583 636L488 655L498 700H738V665L653 636V255Q653 -10 410
-10Q266 -10 196 48T125 233V636L30 655L40 700H320V665ZM418 838Q441 880 483 902Q523 880 545 840Q520 798 480 776Q439 797 418 838ZM207 838Q230 880 272 902Q312 880 334 840Q309 798 269 776Q228 797 207 838Z" />
<glyph unicode="&#xdd;" glyph-name="Yacute" horiz-adv-x="630" d="M501 928L371 745H316L403 928H501ZM183 35L278 64V298L63 636L-15 655L-5 700H240V665L170 645L344 373L510 643L436 655L446 700H655V665L574 637L378 319V64L473 45L463 0H183V35Z" />
<glyph unicode="&#xde;" glyph-name="Thorn" horiz-adv-x="567" d="M230 64L345 45L335 0H35V35L130 64V636L35 655L45 700H325V665L230 636V565H304Q420 565 486 514T552 373Q552 285 490 222T314 158H230V64ZM294 510H230V213H274Q368 213 410 252T452 372Q452
429 408 469T294 510Z" />
<glyph unicode="&#xdf;" glyph-name="germandbls" horiz-adv-x="658" d="M483 490Q421 467 402 451Q380 430 380 400Q380 367 407 343T474 304T553 271T620 221T648 145Q648 63 592 27T450 -10Q354 -10 277 24V158L329 167L356 68Q410 45 451 45Q498 45 526 66T554
130Q554 162 527 184T460 222T381 255T315 306T287 385Q287 434 322 467T408 518Q423 538 423 592Q423 639 393 671T305 704Q254 704 221 673T187 575V0H10V30L97 60L98 576Q98 670 158 713T315 757Q407 757 462 714T517 590Q517 538 483 490Z" />
<glyph unicode="&#xe0;" glyph-name="agrave" horiz-adv-x="537" d="M507 0H355V81Q325 45 273 19T178 -8Q122 -8 84 27T45 123Q45 175 71 205T161 253Q257 278 355 289V371Q355 424 327 449T253 474Q198 474 159 460L131 346L79 355V485Q178 529 258 529Q445
529 445 370V63L517 46L507 0ZM145 131Q145 88 165 72T220 55Q254 55 295 80T355 133V247Q271 237 227 225Q145 203 145 131ZM244 582L94 750H192L299 582H244Z" />
<glyph unicode="&#xe1;" glyph-name="aacute" horiz-adv-x="537" d="M507 0H355V81Q325 45 273 19T178 -8Q122 -8 84 27T45 123Q45 175 71 205T161 253Q257 278 355 289V371Q355 424 327 449T253 474Q198 474 159 460L131 346L79 355V485Q178 529 258 529Q445
529 445 370V63L517 46L507 0ZM145 131Q145 88 165 72T220 55Q254 55 295 80T355 133V247Q271 237 227 225Q145 203 145 131ZM427 750L277 582H222L329 750H427Z" />
<glyph unicode="&#xe2;" glyph-name="acircumflex" horiz-adv-x="537" d="M507 0H355V81Q325 45 273 19T178 -8Q122 -8 84 27T45 123Q45 175 71 205T161 253Q257 278 355 289V371Q355 424 327 449T253 474Q198 474 159 460L131 346L79 355V485Q178 529 258 529Q445
529 445 370V63L517 46L507 0ZM145 131Q145 88 165 72T220 55Q254 55 295 80T355 133V247Q271 237 227 225Q145 203 145 131ZM354 570L257 701L161 570H106L222 749V750H293L292 749L409 570H354Z" />
<glyph unicode="&#xe3;" glyph-name="atilde" horiz-adv-x="537" d="M507 0H355V81Q325 45 273 19T178 -8Q122 -8 84 27T45 123Q45 175 71 205T161 253Q257 278 355 289V371Q355 424 327 449T253 474Q198 474 159 460L131 346L79 355V485Q178 529 258 529Q445
529 445 370V63L517 46L507 0ZM145 131Q145 88 165 72T220 55Q254 55 295 80T355 133V247Q271 237 227 225Q145 203 145 131ZM248 624Q244 626 232 634T214 645T199 652T183 654Q169 648 145 624L117 597L86 630Q94 643 127 679T180 724Q218 743 290 695Q294 693
306 685T324 674T339 667T355 665Q364 666 393 695L421 722L452 689Q444 676 411 640T358 595Q320 576 248 624Z" />
<glyph unicode="&#xe4;" glyph-name="adieresis" horiz-adv-x="537" d="M507 0H355V81Q325 45 273 19T178 -8Q122 -8 84 27T45 123Q45 175 71 205T161 253Q257 278 355 289V371Q355 424 327 449T253 474Q198 474 159 460L131 346L79 355V485Q178 529 258 529Q445
529 445 370V63L517 46L507 0ZM145 131Q145 88 165 72T220 55Q254 55 295 80T355 133V247Q271 237 227 225Q145 203 145 131ZM305 658Q328 700 370 722Q410 700 432 660Q407 618 367 596Q326 617 305 658ZM94 658Q117 700 159 722Q199 700 221 660Q196 618 156
596Q115 617 94 658Z" />
<glyph unicode="&#xe5;" glyph-name="aring" horiz-adv-x="537" d="M507 0H355V81Q325 45 273 19T178 -8Q122 -8 84 27T45 123Q45 175 71 205T161 253Q257 278 355 289V371Q355 424 327 449T253 474Q198 474 159 460L131 346L79 355V485Q178 529 258 529Q445 529
445 370V63L517 46L507 0ZM145 131Q145 88 165 72T220 55Q254 55 295 80T355 133V247Q271 237 227 225Q145 203 145 131ZM156 643T156 692T189 775T272 809T355 775T389 692T355 610T272 576T190 609ZM205 692Q205 615 272 615Q340 615 340 692Q340 770 272 770Q205
770 205 692Z" />
<glyph unicode="&#xe6;" glyph-name="ae" horiz-adv-x="832" d="M787 268H432Q432 171 482 114T610 56Q681 56 757 105L779 67Q682 -9 576 -9Q444 -9 389 115Q365 86 353 74T313 37T251 3T178 -8Q122 -8 84 27T45 123Q45 175 71 205T161 253Q257 278 355 289V371Q355
424 327 449T253 474Q198 474 159 460L131 346L79 355V485Q178 529 258 529Q371 529 408 460Q479 528 573 528Q787 528 787 268ZM145 131Q145 88 165 72T220 55Q254 55 295 80T355 133V247Q271 237 227 225Q145 203 145 131ZM435 322H687Q687 396 653 435T570 474Q519
474 478 433T435 322Z" />
<glyph unicode="&#xe7;" glyph-name="ccedilla" horiz-adv-x="498" d="M415 339L387 457Q342 474 309 474Q235 474 188 415T140 267Q140 179 183 117T310 55Q391 55 456 104L478 66Q398 -11 291 -11Q185 -11 113 62T40 260Q40 383 119 456T306 529Q390 529 465
482V349L415 339ZM249 -67V9H304V-38Q376 -48 376 -115Q376 -154 346 -184T276 -229T194 -246L187 -216Q285 -192 291 -148Q304 -78 249 -67Z" />
<glyph unicode="&#xe8;" glyph-name="egrave" horiz-adv-x="541" d="M495 268H140Q140 171 190 114T318 56Q389 56 465 105L487 67Q390 -9 284 -9Q181 -9 111 64T40 262Q40 346 77 408T167 499T281 528Q495 528 495 268ZM143 322H395Q395 396 361 435T278 474Q227
474 186 433T143 322ZM256 582L106 750H204L311 582H256Z" />
<glyph unicode="&#xe9;" glyph-name="eacute" horiz-adv-x="541" d="M495 268H140Q140 171 190 114T318 56Q389 56 465 105L487 67Q390 -9 284 -9Q181 -9 111 64T40 262Q40 346 77 408T167 499T281 528Q495 528 495 268ZM143 322H395Q395 396 361 435T278 474Q227
474 186 433T143 322ZM435 748L305 565H250L337 748H435Z" />
<glyph unicode="&#xea;" glyph-name="ecircumflex" horiz-adv-x="541" d="M495 268H140Q140 171 190 114T318 56Q389 56 465 105L487 67Q390 -9 284 -9Q181 -9 111 64T40 262Q40 346 77 408T167 499T281 528Q495 528 495 268ZM143 322H395Q395 396 361 435T278
474Q227 474 186 433T143 322ZM384 570L287 701L191 570H136L252 750H323L322 749L439 570H384Z" />
<glyph unicode="&#xeb;" glyph-name="edieresis" horiz-adv-x="541" d="M495 268H140Q140 171 190 114T318 56Q389 56 465 105L487 67Q390 -9 284 -9Q181 -9 111 64T40 262Q40 346 77 408T167 499T281 528Q495 528 495 268ZM143 322H395Q395 396 361 435T278 474Q227
474 186 433T143 322ZM322 658Q345 700 387 722Q427 700 449 660Q424 618 384 596Q343 617 322 658ZM111 658Q134 700 176 722Q216 700 238 660Q213 618 173 596Q132 617 111 658Z" />
<glyph unicode="&#xec;" glyph-name="igrave" horiz-adv-x="313" d="M213 527V62L288 48L278 0H35V30L123 60V447L42 462L37 503L213 527ZM140 582L-10 750H88L195 582H140Z" />
<glyph unicode="&#xed;" glyph-name="iacute" horiz-adv-x="313" d="M324 748L194 565H139L226 748H324ZM213 527V62L288 48L278 0H35V30L123 60V447L42 462L37 503L213 527Z" />
<glyph unicode="&#xee;" glyph-name="icircumflex" horiz-adv-x="313" d="M213 527V62L288 48L278 0H35V30L123 60V447L42 462L37 503L213 527ZM263 570L166 701L70 570H15L131 749V750H202L201 749L318 570H263Z" />
<glyph unicode="&#xef;" glyph-name="idieresis" horiz-adv-x="313" d="M213 527V62L288 48L278 0H35V30L123 60V447L42 462L37 503L213 527ZM208 658Q231 700 273 722Q313 700 335 660Q310 618 270 596Q229 617 208 658ZM-3 658Q20 700 62 722Q102 700 124 660Q99
618 59 596Q18 617 -3 658Z" />
<glyph unicode="&#xf0;" glyph-name="eth" horiz-adv-x="588" d="M224 623L189 665L254 719Q224 734 166 740Q134 742 119 742V788H130Q142 789 157 789T184 790Q252 787 306 762L383 827L418 785L355 733Q439 684 483 582T528 348Q528 182 455 87T279 -8Q164
-8 102 67T40 258Q40 369 110 449T299 530Q351 530 414 502Q412 545 378 604T300 686L224 623ZM425 427L422 453Q374 475 300 475Q220 475 180 416T140 269Q140 167 175 107T280 47Q324 47 355 77T401 159T422 260T428 367Q428 379 425 427Z" />
<glyph unicode="&#xf1;" glyph-name="ntilde" horiz-adv-x="632" d="M536 345L537 62L617 45L607 0H370V30L447 60V325Q447 396 425 421T351 447Q310 447 271 433T212 396V62L288 48L278 0H36V30L123 60V443L40 459L35 503L212 527V445Q244 484 292 506T385 529Q536
529 536 345ZM308 624Q304 626 292 634T274 645T259 652T243 654Q229 648 205 624L177 597L146 630Q154 643 187 679T240 724Q278 743 350 695Q354 693 366 685T384 674T399 667T415 665Q424 666 453 695L481 722L512 689Q504 676 471 640T418 595Q380 576 308
624Z" />
<glyph unicode="&#xf2;" glyph-name="ograve" horiz-adv-x="594" d="M304 47Q379 47 416 107T454 253Q454 347 415 411T290 475Q215 475 178 415T140 269Q140 175 179 111T304 47ZM289 530Q416 530 485 452T554 264T487 74T305 -8Q178 -8 109 70T40 258T107 448T289
530ZM269 582L119 750H217L324 582H269Z" />
<glyph unicode="&#xf3;" glyph-name="oacute" horiz-adv-x="594" d="M304 47Q379 47 416 107T454 253Q454 347 415 411T290 475Q215 475 178 415T140 269Q140 175 179 111T304 47ZM289 530Q416 530 485 452T554 264T487 74T305 -8Q178 -8 109 70T40 258T107 448T289
530ZM451 748L321 565H266L353 748H451Z" />
<glyph unicode="&#xf4;" glyph-name="ocircumflex" horiz-adv-x="594" d="M304 47Q379 47 416 107T454 253Q454 347 415 411T290 475Q215 475 178 415T140 269Q140 175 179 111T304 47ZM289 530Q416 530 485 452T554 264T487 74T305 -8Q178 -8 109 70T40 258T107
448T289 530ZM392 570L295 701L199 570H144L260 749V750H331L330 749L447 570H392Z" />
<glyph unicode="&#xf5;" glyph-name="otilde" horiz-adv-x="594" d="M304 47Q379 47 416 107T454 253Q454 347 415 411T290 475Q215 475 178 415T140 269Q140 175 179 111T304 47ZM289 530Q416 530 485 452T554 264T487 74T305 -8Q178 -8 109 70T40 258T107 448T289
530ZM285 624Q281 626 269 634T251 645T236 652T220 654Q206 648 182 624L154 597L123 630Q131 643 164 679T217 724Q255 743 327 695Q331 693 343 685T361 674T376 667T392 665Q401 666 430 695L458 722L489 689Q481 676 448 640T395 595Q357 576 285 624Z" />
<glyph unicode="&#xf6;" glyph-name="odieresis" horiz-adv-x="594" d="M304 47Q379 47 416 107T454 253Q454 347 415 411T290 475Q215 475 178 415T140 269Q140 175 179 111T304 47ZM289 530Q416 530 485 452T554 264T487 74T305 -8Q178 -8 109 70T40 258T107
448T289 530ZM337 658Q360 700 402 722Q442 700 464 660Q439 618 399 596Q358 617 337 658ZM126 658Q149 700 191 722Q231 700 253 660Q228 618 188 596Q147 617 126 658Z" />
<glyph unicode="&#xf7;" glyph-name="divide" horiz-adv-x="884" d="M140 263V340H744V263H140ZM363 497Q389 545 437 570Q483 545 508 499Q480 451 434 426Q387 450 363 497ZM363 104Q389 152 437 177Q483 152 508 106Q480 58 434 33Q387 57 363 104Z" />
<glyph unicode="&#xf8;" glyph-name="oslash" horiz-adv-x="594" d="M289 530Q348 530 400 509L436 575L480 555L443 486Q498 449 526 391T554 264Q554 155 487 74T305 -8Q240 -8 189 14L139 -80L96 -56L146 38Q40 113 40 258Q40 367 107 448T289 530ZM304 47Q379
47 416 107T454 253Q454 364 408 421L219 69Q253 47 304 47ZM140 269Q140 163 182 105L371 454Q334 475 290 475Q215 475 178 415T140 269Z" />
<glyph unicode="&#xf9;" glyph-name="ugrave" horiz-adv-x="637" d="M111 176L110 459L30 476L40 521H200V196Q200 124 222 99T296 74Q337 74 376 88T435 125V459L359 473L369 521H524V62L605 44L594 0H435V76Q403 37 355 15T262 -8Q111 -8 111 176ZM264 582L114
750H212L319 582H264Z" />
<glyph unicode="&#xfa;" glyph-name="uacute" horiz-adv-x="637" d="M111 176L110 459L30 476L40 521H200V196Q200 124 222 99T296 74Q337 74 376 88T435 125V459L359 473L369 521H524V62L605 44L594 0H435V76Q403 37 355 15T262 -8Q111 -8 111 176ZM458 748L328
565H273L360 748H458Z" />
<glyph unicode="&#xfb;" glyph-name="ucircumflex" horiz-adv-x="637" d="M111 176L110 459L30 476L40 521H200V196Q200 124 222 99T296 74Q337 74 376 88T435 125V459L359 473L369 521H524V62L605 44L594 0H435V76Q403 37 355 15T262 -8Q111 -8 111 176ZM410
570L313 701L217 570H162L278 749V750H349L348 749L465 570H410Z" />
<glyph unicode="&#xfc;" glyph-name="udieresis" horiz-adv-x="637" d="M111 176L110 459L30 476L40 521H200V196Q200 124 222 99T296 74Q337 74 376 88T435 125V459L359 473L369 521H524V62L605 44L594 0H435V76Q403 37 355 15T262 -8Q111 -8 111 176ZM357 658Q380
700 422 722Q462 700 484 660Q459 618 419 596Q378 617 357 658ZM146 658Q169 700 211 722Q251 700 273 660Q248 618 208 596Q167 617 146 658Z" />
<glyph unicode="&#xfd;" glyph-name="yacute" horiz-adv-x="534" d="M220 -42Q240 7 244 17L64 458L-5 475L5 520H219V490L159 465L283 158L289 130L427 462L366 472L376 520H554V490L489 461Q455 376 401 252T330 86Q263 -83 237 -129Q182 -230 81 -230Q50 -230
17 -220L45 -137Q74 -144 104 -144Q119 -144 131 -142T153 -134T169 -123T184 -107T195 -89T207 -66T220 -42ZM434 748L304 565H249L336 748H434Z" />
<glyph unicode="&#xfe;" glyph-name="thorn" horiz-adv-x="614" d="M202 726V462Q276 529 360 529Q446 529 505 458T564 276Q564 157 498 78T325 -2Q268 -2 202 24V-163L298 -177L288 -225H25V-195L112 -165V642L31 658L26 702L202 726ZM202 404V99Q270 53 324
53Q389 53 427 112T465 259Q465 349 430 401T331 453Q269 453 202 404Z" />
<glyph unicode="&#xff;" glyph-name="ydieresis" horiz-adv-x="539" d="M225 -42Q245 7 249 17L69 458L0 475L10 520H224V490L164 465L288 158L294 130L432 462L371 472L381 520H559V490L494 461Q460 376 406 252T335 86Q272 -73 242 -129Q166 -258 22 -220L50
-137Q77 -142 97 -144T133 -141T159 -134T179 -117T194 -98T209 -71T225 -42ZM347 658Q370 700 412 722Q452 700 474 660Q449 618 409 596Q368 617 347 658ZM136 658Q159 700 201 722Q241 700 263 660Q238 618 198 596Q157 617 136 658Z" />
</font>
</defs>
</svg>
